<svg width="280" height="54" viewBox="0 0 280 54" fill="none" xmlns="http://www.w3.org/2000/svg">
<g clip-path="url(#clip0_109_147)">
<g filter="url(#filter0_d_109_147)">
<path d="M25.5766 46.2132C24.4485 47.2891 24.4485 49.0335 25.5766 50.1095C26.7047 51.1854 28.5336 51.1854 29.6617 50.1095L52.8104 28.0304C53.9385 26.9545 53.9385 25.21 52.8104 24.1341C51.6824 23.0582 49.8534 23.0582 48.7254 24.1341L25.5766 46.2132Z" fill="#8C96A4"/>
<path d="M48.724 28.0302C49.852 29.1061 51.681 29.1061 52.809 28.0302C53.9371 26.9542 53.9371 25.2098 52.809 24.1339L29.6603 2.05483C28.5322 0.978899 26.7033 0.978898 25.5752 2.05483C24.4471 3.13077 24.4471 4.8752 25.5752 5.95113L48.724 28.0302Z" fill="#334551"/>
<path d="M29.6617 5.9509C30.7897 4.87496 30.7897 3.13053 29.6617 2.0546C28.5336 0.978662 26.7047 0.978662 25.5766 2.0546L2.42785 24.1336C1.29979 25.2096 1.29979 26.954 2.42785 28.0299C3.55591 29.1059 5.38486 29.1059 6.51292 28.0299L29.6617 5.9509Z" fill="#5CC542"/>
<path d="M6.51238 24.1339C5.38431 23.0579 3.55536 23.0579 2.4273 24.1339C1.29924 25.2098 1.29924 26.9542 2.4273 28.0302L25.5761 50.1092C26.7041 51.1852 28.5331 51.1852 29.6611 50.1092C30.7892 49.0333 30.7892 47.2889 29.6611 46.2129L6.51238 24.1339Z" fill="#334551"/>
<path d="M29.6616 50.1091C28.5335 51.1851 26.7046 51.1851 25.5765 50.1091C24.4485 49.0332 24.4485 47.289 25.5765 46.2131L27.619 44.2646L31.7041 48.1611L29.6616 50.1091Z" fill="#8C96A4"/>
</g>
<g filter="url(#filter1_d_109_147)">
<path d="M85.8792 12.4554V38.5715H82.2307L68.446 18.4284V38.5715H64.8164V12.4554H68.446L82.2869 32.6524V12.4554H85.8792ZM90.8626 29.0829V28.6704C90.8626 27.2713 91.0756 25.9739 91.5019 24.7781C91.9283 23.5703 92.5426 22.524 93.3448 21.6391C94.1475 20.7423 95.1188 20.0487 96.26 19.5585C97.4008 19.0562 98.6795 18.8051 100.096 18.8051C101.526 18.8051 102.811 19.0562 103.951 19.5585C105.105 20.0487 106.083 20.7423 106.885 21.6391C107.7 22.524 108.321 23.5703 108.747 24.7781C109.173 25.9739 109.386 27.2713 109.386 28.6704V29.0829C109.386 30.482 109.173 31.7794 108.747 32.9752C108.321 34.171 107.7 35.2173 106.885 36.1142C106.083 36.9989 105.111 37.6925 103.97 38.195C102.842 38.685 101.563 38.9304 100.134 38.9304C98.7045 38.9304 97.4197 38.685 96.2789 38.195C95.1377 37.6925 94.1598 36.9989 93.3448 36.1142C92.5426 35.2173 91.9283 34.171 91.5019 32.9752C91.0756 31.7794 90.8626 30.482 90.8626 29.0829ZM94.3416 28.6704V29.0829C94.3416 30.0515 94.4606 30.9663 94.699 31.8273C94.937 32.6763 95.2944 33.4296 95.7708 34.0873C96.26 34.745 96.8677 35.2651 97.5949 35.6478C98.3224 36.0185 99.1686 36.2039 100.134 36.2039C101.087 36.2039 101.92 36.0185 102.635 35.6478C103.362 35.2651 103.964 34.745 104.44 34.0873C104.917 33.4296 105.274 32.6763 105.512 31.8273C105.763 30.9663 105.889 30.0515 105.889 29.0829V28.6704C105.889 27.7137 105.763 26.8109 105.512 25.9619C105.274 25.101 104.911 24.3416 104.422 23.6839C103.945 23.0143 103.344 22.4881 102.616 22.1055C101.902 21.7228 101.062 21.5315 100.096 21.5315C99.1436 21.5315 98.3036 21.7228 97.5764 22.1055C96.8616 22.4881 96.26 23.0143 95.7708 23.6839C95.2944 24.3416 94.937 25.101 94.699 25.9619C94.4606 26.8109 94.3416 27.7137 94.3416 28.6704ZM126.575 34.8048V11.0205H130.073V38.5715H126.876L126.575 34.8048ZM112.884 29.0829V28.7062C112.884 27.2235 113.072 25.8782 113.449 24.6705C113.837 23.4508 114.383 22.4044 115.085 21.5315C115.799 20.6586 116.645 19.989 117.623 19.5226C118.614 19.0442 119.717 18.8051 120.933 18.8051C122.212 18.8051 123.328 19.0203 124.281 19.4508C125.246 19.8693 126.061 20.4852 126.725 21.2983C127.402 22.0995 127.935 23.0681 128.324 24.2041C128.713 25.3401 128.982 26.6256 129.132 28.0605V29.7107C128.995 31.1337 128.725 32.4132 128.324 33.5492C127.935 34.6852 127.402 35.6538 126.725 36.455C126.061 37.2561 125.246 37.8721 124.281 38.3026C123.315 38.721 122.187 38.9304 120.896 38.9304C119.704 38.9304 118.614 38.685 117.623 38.195C116.645 37.7046 115.799 37.0169 115.085 36.1321C114.383 35.2472 113.837 34.2069 113.449 33.0111C113.072 31.8033 112.884 30.494 112.884 29.0829ZM116.382 28.7062V29.0829C116.382 30.0515 116.482 30.9603 116.683 31.8093C116.896 32.6583 117.222 33.4057 117.661 34.0514C118.1 34.6972 118.658 35.2054 119.335 35.5761C120.012 35.9348 120.82 36.1142 121.761 36.1142C122.914 36.1142 123.861 35.881 124.6 35.4146C125.353 34.9483 125.954 34.3325 126.406 33.5672C126.857 32.8018 127.208 31.9707 127.459 31.0739V26.7512C127.308 26.0935 127.089 25.4597 126.801 24.8498C126.525 24.228 126.161 23.678 125.71 23.1996C125.271 22.7094 124.726 22.3207 124.074 22.0338C123.434 21.7467 122.676 21.6033 121.798 21.6033C120.845 21.6033 120.024 21.7946 119.335 22.1772C118.658 22.5479 118.1 23.0621 117.661 23.7198C117.222 24.3655 116.896 25.1189 116.683 25.9799C116.482 26.8289 116.382 27.7377 116.382 28.7062ZM143.933 38.9304C142.516 38.9304 141.231 38.703 140.077 38.2486C138.937 37.7825 137.953 37.1304 137.125 36.2935C136.31 35.4565 135.683 34.464 135.244 33.316C134.806 32.1681 134.586 30.9125 134.586 29.5493V28.7959C134.586 27.2175 134.831 25.8124 135.32 24.5808C135.809 23.3371 136.473 22.2849 137.313 21.4239C138.153 20.5629 139.106 19.9112 140.171 19.4688C141.237 19.0263 142.341 18.8051 143.481 18.8051C144.936 18.8051 146.189 19.0442 147.243 19.5226C148.308 20.0009 149.18 20.6705 149.857 21.5315C150.534 22.3805 151.035 23.385 151.361 24.5449C151.687 25.6929 151.85 26.9485 151.85 28.3116V29.8004H136.655V27.0919H148.371V26.8408C148.321 25.9799 148.133 25.1428 147.807 24.3297C147.493 23.5165 146.992 22.8469 146.302 22.3207C145.613 21.7946 144.673 21.5315 143.481 21.5315C142.691 21.5315 141.964 21.6929 141.3 22.0158C140.636 22.3267 140.065 22.7931 139.589 23.4149C139.112 24.0367 138.742 24.796 138.479 25.6929C138.216 26.5897 138.084 27.6241 138.084 28.7959V29.5493C138.084 30.4701 138.216 31.337 138.479 32.1501C138.755 32.9513 139.15 33.6568 139.664 34.2667C140.19 34.8765 140.824 35.3549 141.563 35.7016C142.316 36.0484 143.168 36.2218 144.121 36.2218C145.349 36.2218 146.39 35.9827 147.243 35.5043C148.095 35.026 148.841 34.3863 149.48 33.5851L151.587 35.1815C151.148 35.8152 150.59 36.4191 149.913 36.993C149.236 37.5672 148.402 38.0334 147.412 38.3923C146.434 38.7508 145.274 38.9304 143.933 38.9304ZM157.586 12.4554H161.103L170.073 33.7465L179.024 12.4554H182.56L171.427 38.5715H168.681L157.586 12.4554ZM156.439 12.4554H159.542L160.05 28.3834V38.5715H156.439V12.4554ZM180.585 12.4554H183.689V38.5715H180.078V28.3834L180.585 12.4554ZM201.535 35.2532V25.2624C201.535 24.4971 201.372 23.8334 201.046 23.2714C200.733 22.6974 200.256 22.255 199.617 21.944C198.978 21.6332 198.188 21.4777 197.248 21.4777C196.37 21.4777 195.599 21.6212 194.934 21.9082C194.282 22.1952 193.769 22.5718 193.392 23.0382C193.029 23.5046 192.847 24.0068 192.847 24.5449H189.368C189.368 23.8513 189.556 23.1637 189.932 22.4822C190.308 21.8006 190.847 21.1847 191.549 20.6347C192.264 20.0726 193.116 19.6302 194.107 19.3073C195.11 18.9725 196.226 18.8051 197.454 18.8051C198.934 18.8051 200.237 19.0442 201.366 19.5226C202.507 20.0009 203.397 20.7243 204.036 21.6929C204.688 22.6496 205.014 23.8513 205.014 25.2983V34.3384C205.014 34.9842 205.071 35.6717 205.183 36.4012C205.309 37.1304 205.491 37.7582 205.729 38.2846V38.5715H202.099C201.924 38.1888 201.786 37.6807 201.686 37.047C201.585 36.4012 201.535 35.8033 201.535 35.2532ZM202.137 26.805L202.175 29.1367H198.658C197.667 29.1367 196.783 29.2145 196.006 29.3699C195.229 29.5134 194.577 29.7346 194.05 30.0336C193.524 30.3325 193.123 30.7092 192.847 31.1636C192.571 31.606 192.433 32.1262 192.433 32.7241C192.433 33.334 192.577 33.89 192.866 34.3922C193.154 34.8945 193.587 35.2951 194.163 35.594C194.753 35.881 195.474 36.0245 196.326 36.0245C197.392 36.0245 198.332 35.8093 199.147 35.3788C199.962 34.9483 200.608 34.4221 201.084 33.8003C201.573 33.1785 201.836 32.5746 201.874 31.9887L203.359 33.5851C203.272 34.0873 203.034 34.6433 202.645 35.2532C202.256 35.8631 201.736 36.449 201.084 37.011C200.445 37.561 199.68 38.0216 198.79 38.3923C197.912 38.7508 196.921 38.9304 195.818 38.9304C194.439 38.9304 193.229 38.6733 192.189 38.159C191.161 37.6447 190.358 36.957 189.782 36.0962C189.217 35.2233 188.935 34.2487 188.935 33.1725C188.935 32.1322 189.148 31.2174 189.575 30.4282C190.001 29.627 190.615 28.9634 191.418 28.4372C192.22 27.8991 193.185 27.4925 194.314 27.2175C195.442 26.9425 196.702 26.805 198.094 26.805H202.137ZM213.966 22.2131V38.5715H210.487V19.1639H213.872L213.966 22.2131ZM220.322 19.0562L220.303 22.1413C220.015 22.0816 219.739 22.0457 219.476 22.0338C219.225 22.0098 218.937 21.9979 218.611 21.9979C217.808 21.9979 217.1 22.1174 216.486 22.3566C215.872 22.5958 215.351 22.9306 214.925 23.3611C214.499 23.7915 214.16 24.3058 213.909 24.9037C213.671 25.4896 213.514 26.1353 213.439 26.8408L212.462 27.3789C212.462 26.207 212.581 25.1069 212.819 24.0786C213.069 23.0502 213.452 22.1413 213.966 21.3521C214.48 20.551 215.132 19.9291 215.922 19.4867C216.724 19.0323 217.677 18.8051 218.78 18.8051C219.031 18.8051 219.319 18.835 219.645 18.8948C219.971 18.9426 220.197 18.9964 220.322 19.0562ZM227.036 11.0205V38.5715H223.538V11.0205H227.036ZM239.467 19.1639L230.59 28.222L225.625 33.1367L225.343 29.6031L228.898 25.5494L235.217 19.1639H239.467ZM236.288 38.5715L229.029 29.3161L230.835 26.3565L240.388 38.5715H236.288ZM251.126 38.9304C249.71 38.9304 248.424 38.703 247.271 38.2486C246.13 37.7825 245.146 37.1304 244.319 36.2935C243.504 35.4565 242.877 34.464 242.438 33.316C241.999 32.1681 241.78 30.9125 241.78 29.5493V28.7959C241.78 27.2175 242.024 25.8124 242.513 24.5808C243.002 23.3371 243.667 22.2849 244.507 21.4239C245.347 20.5629 246.3 19.9112 247.365 19.4688C248.431 19.0263 249.534 18.8051 250.675 18.8051C252.129 18.8051 253.383 19.0442 254.436 19.5226C255.502 20.0009 256.373 20.6705 257.05 21.5315C257.727 22.3805 258.229 23.385 258.554 24.5449C258.881 25.6929 259.044 26.9485 259.044 28.3116V29.8004H243.848V27.0919H255.565V26.8408C255.514 25.9799 255.326 25.1428 255 24.3297C254.687 23.5165 254.185 22.8469 253.496 22.3207C252.806 21.7946 251.866 21.5315 250.675 21.5315C249.885 21.5315 249.158 21.6929 248.493 22.0158C247.829 22.3267 247.259 22.7931 246.782 23.4149C246.306 24.0367 245.936 24.796 245.673 25.6929C245.409 26.5897 245.278 27.6241 245.278 28.7959V29.5493C245.278 30.4701 245.409 31.337 245.673 32.1501C245.948 32.9513 246.343 33.6568 246.857 34.2667C247.384 34.8765 248.017 35.3549 248.757 35.7016C249.509 36.0484 250.362 36.2218 251.314 36.2218C252.543 36.2218 253.584 35.9827 254.436 35.5043C255.289 35.026 256.034 34.3863 256.674 33.5851L258.78 35.1815C258.341 35.8152 257.783 36.4191 257.107 36.993C256.43 37.5672 255.596 38.0334 254.605 38.3923C253.627 38.7508 252.468 38.9304 251.126 38.9304ZM271.625 19.1639V21.7109H260.623V19.1639H271.625ZM264.347 14.4465H267.826V33.7645C267.826 34.4221 267.932 34.9184 268.146 35.2532C268.359 35.588 268.634 35.8093 268.973 35.9169C269.312 36.0245 269.675 36.0783 270.064 36.0783C270.352 36.0783 270.653 36.0544 270.967 36.0066C271.292 35.9468 271.537 35.8989 271.7 35.8631L271.719 38.5715C271.443 38.6553 271.079 38.7328 270.628 38.8048C270.189 38.8885 269.656 38.9304 269.03 38.9304C268.177 38.9304 267.393 38.7688 266.679 38.4459C265.964 38.123 265.394 37.5848 264.967 36.8318C264.554 36.0663 264.347 35.038 264.347 33.7465V14.4465Z" fill="#FAFAFA"/>
</g>
</g>
<defs>
<filter id="filter0_d_109_147" x="-2.41797" y="1.24805" width="60.0742" height="57.668" filterUnits="userSpaceOnUse" color-interpolation-filters="sRGB">
<feFlood flood-opacity="0" result="BackgroundImageFix"/>
<feColorMatrix in="SourceAlpha" type="matrix" values="0 0 0 0 0 0 0 0 0 0 0 0 0 0 0 0 0 0 127 0" result="hardAlpha"/>
<feOffset dy="4"/>
<feGaussianBlur stdDeviation="2"/>
<feComposite in2="hardAlpha" operator="out"/>
<feColorMatrix type="matrix" values="0 0 0 0 0 0 0 0 0 0 0 0 0 0 0 0 0 0 0.25 0"/>
<feBlend mode="normal" in2="BackgroundImageFix" result="effect1_dropShadow_109_147"/>
<feBlend mode="normal" in="SourceGraphic" in2="effect1_dropShadow_109_147" result="shape"/>
</filter>
<filter id="filter1_d_109_147" x="60.8164" y="11.0205" width="214.902" height="35.9102" filterUnits="userSpaceOnUse" color-interpolation-filters="sRGB">
<feFlood flood-opacity="0" result="BackgroundImageFix"/>
<feColorMatrix in="SourceAlpha" type="matrix" values="0 0 0 0 0 0 0 0 0 0 0 0 0 0 0 0 0 0 127 0" result="hardAlpha"/>
<feOffset dy="4"/>
<feGaussianBlur stdDeviation="2"/>
<feComposite in2="hardAlpha" operator="out"/>
<feColorMatrix type="matrix" values="0 0 0 0 0 0 0 0 0 0 0 0 0 0 0 0 0 0 0.25 0"/>
<feBlend mode="normal" in2="BackgroundImageFix" result="effect1_dropShadow_109_147"/>
<feBlend mode="normal" in="SourceGraphic" in2="effect1_dropShadow_109_147" result="shape"/>
</filter>
<clipPath id="clip0_109_147">
<rect width="280" height="54" fill="white"/>
</clipPath>
</defs>
</svg>
